<svg xmlns="http://www.w3.org/2000/svg" width="360" height="63"><path d="M23.477 25.041c-6.146 0-11.13 4.983-11.13 11.13 0 6.147 4.983 11.13 11.13 11.13 6.146 0 11.13-4.982 11.13-11.13 0-6.147-4.984-11.13-11.13-11.13zm.001 17.364c-3.442 0-6.232-2.791-6.232-6.234 0-3.442 2.79-6.231 6.232-6.231 3.443 0 6.232 2.789 6.232 6.231-.001 3.443-2.79 6.234-6.232 6.234zm26.71-17.364c-6.146 0-11.128 4.983-11.128 11.13 0 6.147 4.982 11.13 11.128 11.13 6.148 0 11.13-4.982 11.13-11.13 0-6.147-4.981-11.13-11.13-11.13zm0 17.364c-3.443 0-6.231-2.791-6.231-6.234 0-3.442 2.789-6.231 6.231-6.231 3.444 0 6.234 2.789 6.234 6.231 0 3.443-2.79 6.234-6.234 6.234zm15.801-37.953c-.337-.445-1.087-.445-1.422 0-6.645 8.833-16.753 13.898-27.734 13.898-10.979 0-21.087-5.064-27.732-13.897-.336-.445-1.085-.445-1.422 0-4.81 6.394-7.352 13.972-7.352 21.914 0 20.135 16.375 36.516 36.506 36.516 20.129 0 36.505-16.381 36.505-36.516 0-7.944-2.541-15.522-7.349-21.915zm-25.101 47.557l-3.655 7.358c-.22.439-.579.463-.797.024l-3.655-7.395c-.22-.438.003-.879.492-.879h7.124c.488.001.709.454.491.892zm9.3-.7c-5.784 0-10.807-3.249-13.355-8.018-2.548 4.769-7.571 8.018-13.355 8.018-8.358 0-15.137-6.78-15.137-15.138 0-8.356 6.779-15.137 15.137-15.137 5.784 0 10.807 3.25 13.355 8.021 2.548-4.771 7.571-8.021 13.355-8.021 8.358 0 15.137 6.78 15.137 15.137s-6.779 15.138-15.137 15.138zm61.648-22.456c0-.758-.694-.879-.949-.12l-5.061 13.785c-.127.506-.377.697-.887.697h-1.644c-.506 0-.758-.191-1.011-.697l-4.999-13.785c-.252-.759-.947-.698-.947.12v27.521c0 .573-.318.823-.888.823h-4.301c-.571 0-.822-.25-.822-.823v-46.43c0-.577.25-.826.822-.826h4.49c.443 0 .76.188.949.696l6.96 18.787c.253.698.822.698 1.139 0l6.895-18.787c.189-.508.442-.696.949-.696h4.428c.569 0 .885.249.885.826v46.429c0 .573-.316.823-.885.823h-4.303c-.567 0-.822-.25-.822-.823v-27.52zm31.186 27.457c.062.509-.19.887-.76.887h-4.301c-.508 0-.822-.25-.888-.756l-1.898-10.506c-.062-.507-.441-.758-.883-.758h-5.061c-.444 0-.824.251-.888.758l-1.708 10.506c-.063.506-.444.756-.95.756h-4.302c-.569 0-.821-.378-.758-.887l8.033-46.435c.064-.508.38-.757.887-.757h4.428c.506 0 .823.249.95.757l8.099 46.435zm-13.412-18.09c-.063.51.189.888.759.888h2.783c.569 0 .823-.378.758-.888l-1.644-9.807c-.125-.826-.822-.826-1.013 0l-1.643 9.807zm16.194-28.276c0-.577.25-.826.822-.826h13.666c.378 0 .757.128 1.011.377l2.151 2.214c.316.257.443.568.443 1.015v40.867c0 .377-.126.757-.443 1.014l-2.151 2.154c-.254.31-.633.438-1.011.438h-13.666c-.572 0-.822-.25-.822-.823v-46.43zm6.072 40.355c0 .569.252.828.822.828h3.796c.442 0 .697-.068 1.013-.318.252-.318.316-.569.316-1.015v-33.401c0-.381-.063-.698-.316-.946-.316-.259-.571-.38-1.013-.38h-3.796c-.57 0-.822.312-.822.888v34.344zm33.463 6.074c0 .573-.313.823-.82.823h-15.629c-.567 0-.825-.25-.825-.823v-46.429c0-.577.258-.826.825-.826h15.629c.507 0 .82.249.82.826v4.295c0 .57-.313.827-.82.827h-9.619c-.566 0-.825.312-.825.888v13.346c0 .568.258.819.825.819h4.367c.57 0 .827.256.827.824v4.299c0 .573-.257.887-.827.887h-4.367c-.566 0-.825.256-.825.824v13.346c0 .569.258.828.825.828h9.619c.507 0 .82.311.82.819v4.427zm17.394-46.429c0-.577.252-.826.822-.826h13.603c.378 0 .757.128 1.013.377l2.154 2.214c.312.257.438.568.438 1.015v16.766c0 .438-.126.757-.438 1.075l-2.031 2.022c-.379.318-.379.761 0 1.078l2.031 2.022c.312.25.438.628.438 1.075v16.827c0 .377-.126.757-.438 1.014l-2.154 2.154c-.256.31-.635.438-1.013.438h-13.603c-.57 0-.822-.25-.822-.823v-46.428zm6.069 19.356c0 .568.254.819.828.819h3.796c.44 0 .693-.062 1.008-.312.258-.317.318-.576.318-1.016v-12.398c0-.381-.061-.698-.318-.946-.314-.259-.567-.38-1.008-.38h-3.796c-.574 0-.828.312-.828.888v13.345zm5.95 8.164c0-.45-.061-.7-.318-1.02-.314-.246-.567-.315-1.008-.315h-3.796c-.574 0-.828.256-.828.824v13.346c0 .569.254.828.828.828h3.796c.44 0 .693-.068 1.008-.318.258-.318.318-.569.318-1.015v-12.33zm22.772-1.584c-.063.377-.127.628-.127 1.006v19.487c0 .573-.25.823-.819.823h-4.303c-.568 0-.824-.25-.824-.823v-19.487c0-.378-.063-.629-.188-1.006l-7.782-25.816c-.126-.628.062-.945.698-.945h4.938c.566 0 .881.188 1.005.696l3.798 14.551c.254.82.756.82 1.016.062l3.789-14.612c.131-.508.449-.696 1.016-.696h4.934c.633 0 .828.317.698.945l-7.849 25.815zm39.092-26.762c.382 0 .766.128 1.017.377l2.149 2.214c.314.257.441.568.441 1.015v40.867c0 .377-.127.757-.441 1.014l-2.149 2.154c-.251.31-.635.438-1.017.438h-10.816c-.379 0-.757-.128-1.012-.438l-2.148-2.154c-.317-.257-.446-.637-.446-1.014v-40.867c0-.446.129-.758.446-1.015l2.148-2.214c.255-.249.633-.377 1.012-.377h10.816zm-2.464 7.334c0-.379-.065-.696-.317-.947-.319-.249-.568-.317-1.016-.317h-3.286c-.442 0-.692.068-1.012.317-.251.251-.318.568-.318.947v33.41c0 .437.067.695.318 1.006.319.259.569.318 1.012.318h3.286c.447 0 .696-.06 1.016-.318.252-.311.317-.569.317-1.006v-33.41zm44.153-7.334c.568 0 .825.317.761.884l-7.34 46.438c-.06.506-.379.756-.888.756h-4.424c-.512 0-.889-.25-.949-.756l-3.924-25.367c-.191-.767-.887-.767-1.012 0l-3.924 25.367c-.125.506-.441.756-.946.756h-4.427c-.51 0-.828-.25-.887-.756l-7.34-46.438c-.064-.566.187-.884.761-.884h4.297c.507 0 .888.249.952.757l3.921 27.458c.19.695.887.695 1.013 0l3.923-27.458c.128-.508.441-.757.946-.757h4.434c.502 0 .82.249.884.757l3.982 27.458c.129.695.827.695 1.017 0l3.921-27.458c.064-.508.442-.757.95-.757h4.299zm19.99 42.069c.508 0 .822.318.822.889v4.298c0 .573-.314.823-.822.823h-15.627c-.569 0-.82-.25-.82-.823v-46.43c0-.577.251-.826.82-.826h4.429c.502 0 .821.249.821.826v40.419c0 .572.254.823.823.823h9.554zm21.377-30.876c0 .576-.31.827-.884.827h-4.364c-.57 0-.82-.251-.82-.827v-3.858c0-.379-.064-.696-.381-.947-.253-.249-.508-.317-.949-.317h-3.355c-.378 0-.692.068-.948.317-.317.251-.376.568-.376.947v12.4c0 .447.059.697.376 1.016.256.251.57.317.948.317h7.085c.45 0 .762.121 1.078.439l2.151 2.153c.248.249.439.63.439 1.007v19.806c0 .377-.191.757-.439 1.014l-2.151 2.154c-.316.31-.628.438-1.078.438h-10.755c-.504 0-.756-.128-1.074-.438l-2.214-2.154c-.249-.257-.378-.637-.378-1.014v-7.526c0-.569.25-.827.819-.827h4.367c.574 0 .825.258.825.827v3.798c0 .437.059.695.376 1.006.256.259.57.318.948.318h3.355c.441 0 .696-.06.949-.318.316-.311.381-.569.381-1.006v-12.34c0-.441-.064-.697-.381-1.016-.253-.251-.508-.31-.949-.31h-7.025c-.504 0-.756-.132-1.074-.45l-2.214-2.15c-.249-.249-.378-.629-.378-1.01v-19.863c0-.446.129-.758.378-1.015l2.214-2.214c.318-.249.57-.377 1.074-.377h10.755c.45 0 .762.128 1.078.377l2.151 2.214c.248.257.439.568.439 1.015v7.587z" opacity=".3"/><path d="M23.477 21.041c-6.146 0-11.13 4.983-11.13 11.13 0 6.147 4.983 11.13 11.13 11.13 6.146 0 11.13-4.982 11.13-11.13 0-6.147-4.984-11.13-11.13-11.13zm.001 17.364c-3.442 0-6.232-2.791-6.232-6.234 0-3.442 2.79-6.231 6.232-6.231 3.443 0 6.232 2.789 6.232 6.231-.001 3.443-2.79 6.234-6.232 6.234zm26.71-17.364c-6.146 0-11.128 4.983-11.128 11.13 0 6.147 4.982 11.13 11.128 11.13 6.148 0 11.13-4.982 11.13-11.13 0-6.147-4.981-11.13-11.13-11.13zm0 17.364c-3.443 0-6.231-2.791-6.231-6.234 0-3.442 2.789-6.231 6.231-6.231 3.444 0 6.234 2.789 6.234 6.231 0 3.443-2.79 6.234-6.234 6.234zm15.801-37.953c-.337-.445-1.087-.445-1.422 0-6.645 8.833-16.753 13.898-27.734 13.898-10.979 0-21.087-5.064-27.732-13.897-.336-.445-1.085-.445-1.422 0-4.81 6.394-7.352 13.972-7.352 21.914 0 20.135 16.375 36.516 36.506 36.516 20.129 0 36.505-16.381 36.505-36.516 0-7.944-2.541-15.522-7.349-21.915zm-25.101 47.557l-3.655 7.358c-.22.439-.579.463-.797.024l-3.655-7.395c-.22-.438.003-.879.492-.879h7.124c.488.001.709.454.491.892zm9.3-.7c-5.784 0-10.807-3.249-13.355-8.018-2.548 4.769-7.571 8.018-13.355 8.018-8.358 0-15.137-6.78-15.137-15.138 0-8.356 6.779-15.137 15.137-15.137 5.784 0 10.807 3.25 13.355 8.021 2.548-4.771 7.571-8.021 13.355-8.021 8.358 0 15.137 6.78 15.137 15.137s-6.779 15.138-15.137 15.138zm61.648-22.456c0-.758-.694-.879-.949-.12l-5.061 13.785c-.127.506-.377.697-.887.697h-1.644c-.506 0-.758-.191-1.011-.697l-4.999-13.785c-.252-.759-.947-.698-.947.12v27.521c0 .573-.318.823-.888.823h-4.301c-.571 0-.822-.25-.822-.823v-46.43c0-.577.25-.826.822-.826h4.49c.443 0 .76.188.949.696l6.96 18.787c.253.698.822.698 1.139 0l6.895-18.787c.189-.508.442-.696.949-.696h4.428c.569 0 .885.249.885.826v46.429c0 .573-.316.823-.885.823h-4.303c-.567 0-.822-.25-.822-.823v-27.52zm31.186 27.457c.062.509-.19.887-.76.887h-4.301c-.508 0-.822-.25-.888-.756l-1.898-10.506c-.062-.507-.441-.758-.883-.758h-5.061c-.444 0-.824.251-.888.758l-1.708 10.506c-.063.506-.444.756-.95.756h-4.302c-.569 0-.821-.378-.758-.887l8.033-46.435c.064-.508.38-.757.887-.757h4.428c.506 0 .823.249.95.757l8.099 46.435zm-13.412-18.09c-.063.51.189.888.759.888h2.783c.569 0 .823-.378.758-.888l-1.644-9.807c-.125-.826-.822-.826-1.013 0l-1.643 9.807zm16.194-28.276c0-.577.25-.826.822-.826h13.666c.378 0 .757.128 1.011.377l2.151 2.214c.316.257.443.568.443 1.015v40.867c0 .377-.126.757-.443 1.014l-2.151 2.154c-.254.31-.633.438-1.011.438h-13.666c-.572 0-.822-.25-.822-.823v-46.43zm6.072 40.355c0 .569.252.828.822.828h3.796c.442 0 .697-.068 1.013-.318.252-.318.316-.569.316-1.015v-33.401c0-.381-.063-.698-.316-.946-.316-.259-.571-.38-1.013-.38h-3.796c-.57 0-.822.312-.822.888v34.344zm33.463 6.074c0 .573-.313.823-.82.823h-15.629c-.567 0-.825-.25-.825-.823v-46.429c0-.577.258-.826.825-.826h15.629c.507 0 .82.249.82.826v4.295c0 .57-.313.827-.82.827h-9.619c-.566 0-.825.312-.825.888v13.346c0 .568.258.819.825.819h4.367c.57 0 .827.256.827.824v4.299c0 .573-.257.887-.827.887h-4.367c-.566 0-.825.256-.825.824v13.346c0 .569.258.828.825.828h9.619c.507 0 .82.311.82.819v4.427zm17.394-46.429c0-.577.252-.826.822-.826h13.603c.378 0 .757.128 1.013.377l2.154 2.214c.312.257.438.568.438 1.015v16.766c0 .438-.126.757-.438 1.075l-2.031 2.022c-.379.318-.379.761 0 1.078l2.031 2.022c.312.25.438.628.438 1.075v16.827c0 .377-.126.757-.438 1.014l-2.154 2.154c-.256.31-.635.438-1.013.438h-13.603c-.57 0-.822-.25-.822-.823v-46.428zm6.069 19.356c0 .568.254.819.828.819h3.796c.44 0 .693-.062 1.008-.312.258-.317.318-.576.318-1.016v-12.398c0-.381-.061-.698-.318-.946-.314-.259-.567-.38-1.008-.38h-3.796c-.574 0-.828.312-.828.888v13.345zm5.95 8.164c0-.45-.061-.7-.318-1.02-.314-.246-.567-.315-1.008-.315h-3.796c-.574 0-.828.256-.828.824v13.346c0 .569.254.828.828.828h3.796c.44 0 .693-.068 1.008-.318.258-.318.318-.569.318-1.015v-12.33zm22.772-1.584c-.063.377-.127.628-.127 1.006v19.487c0 .573-.25.823-.819.823h-4.303c-.568 0-.824-.25-.824-.823v-19.487c0-.378-.063-.629-.188-1.006l-7.783-25.817c-.126-.628.062-.945.698-.945h4.938c.566 0 .881.188 1.005.696l3.798 14.551c.254.82.756.82 1.016.062l3.789-14.612c.131-.508.449-.696 1.016-.696h4.934c.633 0 .828.317.698.945l-7.848 25.816zm39.092-26.762c.382 0 .766.128 1.017.377l2.149 2.214c.314.257.441.568.441 1.015v40.867c0 .377-.127.757-.441 1.014l-2.149 2.154c-.251.31-.635.438-1.017.438h-10.816c-.379 0-.757-.128-1.012-.438l-2.148-2.154c-.317-.257-.446-.637-.446-1.014v-40.867c0-.446.129-.758.446-1.015l2.148-2.214c.255-.249.633-.377 1.012-.377h10.816zm-2.464 7.334c0-.379-.065-.696-.317-.947-.319-.249-.568-.317-1.016-.317h-3.286c-.442 0-.692.068-1.012.317-.251.251-.318.568-.318.947v33.41c0 .437.067.695.318 1.006.319.259.569.318 1.012.318h3.286c.447 0 .696-.06 1.016-.318.252-.311.317-.569.317-1.006v-33.41zm44.153-7.334c.568 0 .825.317.761.884l-7.34 46.438c-.06.506-.379.756-.888.756h-4.424c-.512 0-.889-.25-.949-.756l-3.924-25.367c-.191-.767-.887-.767-1.012 0l-3.924 25.367c-.125.506-.441.756-.946.756h-4.427c-.51 0-.828-.25-.887-.756l-7.34-46.438c-.064-.566.187-.884.761-.884h4.297c.507 0 .888.249.952.757l3.921 27.458c.19.695.887.695 1.013 0l3.923-27.458c.128-.508.441-.757.946-.757h4.434c.502 0 .82.249.884.757l3.982 27.458c.129.695.827.695 1.017 0l3.921-27.458c.064-.508.442-.757.95-.757h4.299zm19.99 42.069c.508 0 .822.318.822.889v4.298c0 .573-.314.823-.822.823h-15.627c-.569 0-.82-.25-.82-.823v-46.43c0-.577.251-.826.82-.826h4.429c.502 0 .821.249.821.826v40.419c0 .572.254.823.823.823h9.554zm21.377-30.876c0 .576-.31.827-.884.827h-4.364c-.57 0-.82-.251-.82-.827v-3.858c0-.379-.064-.696-.381-.947-.253-.249-.508-.317-.949-.317h-3.355c-.378 0-.692.068-.948.317-.317.251-.376.568-.376.947v12.4c0 .447.059.697.376 1.016.256.251.57.317.948.317h7.085c.45 0 .762.121 1.078.439l2.151 2.153c.248.249.439.63.439 1.007v19.806c0 .377-.191.757-.439 1.014l-2.151 2.154c-.316.31-.628.438-1.078.438h-10.755c-.504 0-.756-.128-1.074-.438l-2.214-2.154c-.249-.257-.378-.637-.378-1.014v-7.526c0-.569.25-.827.819-.827h4.367c.574 0 .825.258.825.827v3.798c0 .437.059.695.376 1.006.256.259.57.318.948.318h3.355c.441 0 .696-.06.949-.318.316-.311.381-.569.381-1.006v-12.34c0-.441-.064-.697-.381-1.016-.253-.251-.508-.31-.949-.31h-7.025c-.504 0-.756-.132-1.074-.45l-2.214-2.15c-.249-.249-.378-.629-.378-1.01v-19.863c0-.446.129-.758.378-1.015l2.214-2.214c.318-.249.57-.377 1.074-.377h10.755c.45 0 .762.128 1.078.377l2.151 2.214c.248.257.439.568.439 1.015v7.587z" fill="#fff"/></svg>