<?xml version="1.0" encoding="utf-8"?>
<!-- Generator: Adobe Illustrator 16.0.0, SVG Export Plug-In . SVG Version: 6.00 Build 0)  -->
<!DOCTYPE svg PUBLIC "-//W3C//DTD SVG 1.1//EN" "http://www.w3.org/Graphics/SVG/1.1/DTD/svg11.dtd">
<svg version="1.1" id="Layer_1" xmlns="http://www.w3.org/2000/svg" xmlns:xlink="http://www.w3.org/1999/xlink" x="0px" y="0px"
	 width="360px" height="63px" viewBox="0 0 360 63" enable-background="new 0 0 360 63" xml:space="preserve">
<g>
	<g opacity="0.3">
		<path d="M23.477,25.041c-6.146,0-11.13,4.983-11.13,11.13c0,6.147,4.983,11.13,11.13,11.13c6.146,0,11.13-4.982,11.13-11.13
			C34.607,30.024,29.623,25.041,23.477,25.041z M23.478,42.405c-3.442,0-6.232-2.791-6.232-6.234c0-3.442,2.79-6.231,6.232-6.231
			c3.443,0,6.232,2.789,6.232,6.231C29.709,39.614,26.92,42.405,23.478,42.405z"/>
		<path d="M50.188,25.041c-6.146,0-11.128,4.983-11.128,11.13c0,6.147,4.982,11.13,11.128,11.13c6.148,0,11.13-4.982,11.13-11.13
			C61.318,30.024,56.337,25.041,50.188,25.041z M50.188,42.405c-3.443,0-6.231-2.791-6.231-6.234c0-3.442,2.789-6.231,6.231-6.231
			c3.444,0,6.234,2.789,6.234,6.231C56.422,39.614,53.632,42.405,50.188,42.405z"/>
		<path d="M65.989,4.452c-0.337-0.445-1.087-0.445-1.422,0C57.922,13.285,47.814,18.35,36.833,18.35
			c-10.979,0-21.087-5.064-27.732-13.897c-0.336-0.445-1.085-0.445-1.422,0c-4.81,6.394-7.352,13.972-7.352,21.914
			c0,20.135,16.375,36.516,36.506,36.516c20.129,0,36.505-16.381,36.505-36.516C73.338,18.423,70.797,10.845,65.989,4.452z
			 M40.888,52.009l-3.655,7.358c-0.22,0.439-0.579,0.463-0.797,0.024l-3.655-7.395c-0.22-0.438,0.003-0.879,0.492-0.879h7.124
			C40.885,51.118,41.106,51.571,40.888,52.009z M50.188,51.309c-5.784,0-10.807-3.249-13.355-8.018
			c-2.548,4.769-7.571,8.018-13.355,8.018c-8.358,0-15.137-6.78-15.137-15.138c0-8.356,6.779-15.137,15.137-15.137
			c5.784,0,10.807,3.25,13.355,8.021c2.548-4.771,7.571-8.021,13.355-8.021c8.358,0,15.137,6.78,15.137,15.137
			C65.325,44.528,58.546,51.309,50.188,51.309z"/>
		<path d="M111.836,28.853c0-0.758-0.694-0.879-0.949-0.12l-5.061,13.785c-0.127,0.506-0.377,0.697-0.887,0.697h-1.644
			c-0.506,0-0.758-0.191-1.011-0.697l-4.999-13.785c-0.252-0.759-0.947-0.698-0.947,0.12v27.521c0,0.573-0.318,0.823-0.888,0.823
			h-4.301c-0.571,0-0.822-0.25-0.822-0.823V9.944c0-0.577,0.25-0.826,0.822-0.826h4.49c0.443,0,0.76,0.188,0.949,0.696l6.96,18.787
			c0.253,0.698,0.822,0.698,1.139,0l6.895-18.787c0.189-0.508,0.442-0.696,0.949-0.696h4.428c0.569,0,0.885,0.249,0.885,0.826
			v46.429c0,0.573-0.316,0.823-0.885,0.823h-4.303c-0.567,0-0.822-0.25-0.822-0.823V28.853z"/>
		<path d="M143.022,56.31c0.062,0.509-0.19,0.887-0.76,0.887h-4.301c-0.508,0-0.822-0.25-0.888-0.756l-1.898-10.506
			c-0.062-0.507-0.441-0.758-0.883-0.758h-5.061c-0.444,0-0.824,0.251-0.888,0.758l-1.708,10.506
			c-0.063,0.506-0.444,0.756-0.95,0.756h-4.302c-0.569,0-0.821-0.378-0.758-0.887l8.033-46.435c0.064-0.508,0.38-0.757,0.887-0.757
			h4.428c0.506,0,0.823,0.249,0.95,0.757L143.022,56.31z M129.61,38.22c-0.063,0.51,0.189,0.888,0.759,0.888h2.783
			c0.569,0,0.823-0.378,0.758-0.888l-1.644-9.807c-0.125-0.826-0.822-0.826-1.013,0L129.61,38.22z"/>
		<path d="M145.804,9.944c0-0.577,0.25-0.826,0.822-0.826h13.666c0.378,0,0.757,0.128,1.011,0.377l2.151,2.214
			c0.316,0.257,0.443,0.568,0.443,1.015v40.867c0,0.377-0.126,0.757-0.443,1.014l-2.151,2.154c-0.254,0.31-0.633,0.438-1.011,0.438
			h-13.666c-0.572,0-0.822-0.25-0.822-0.823V9.944z M151.876,50.299c0,0.569,0.252,0.828,0.822,0.828h3.796
			c0.442,0,0.697-0.068,1.013-0.318c0.252-0.318,0.316-0.569,0.316-1.015V16.393c0-0.381-0.063-0.698-0.316-0.946
			c-0.316-0.259-0.571-0.38-1.013-0.38h-3.796c-0.57,0-0.822,0.312-0.822,0.888V50.299z"/>
		<path d="M185.339,56.373c0,0.573-0.313,0.823-0.82,0.823H168.89c-0.567,0-0.825-0.25-0.825-0.823V9.944
			c0-0.577,0.258-0.826,0.825-0.826h15.629c0.507,0,0.82,0.249,0.82,0.826v4.295c0,0.57-0.313,0.827-0.82,0.827H174.9
			c-0.566,0-0.825,0.312-0.825,0.888V29.3c0,0.568,0.258,0.819,0.825,0.819h4.367c0.57,0,0.827,0.256,0.827,0.824v4.299
			c0,0.573-0.257,0.887-0.827,0.887H174.9c-0.566,0-0.825,0.256-0.825,0.824v13.346c0,0.569,0.258,0.828,0.825,0.828h9.619
			c0.507,0,0.82,0.311,0.82,0.819V56.373z"/>
		<path d="M202.733,9.944c0-0.577,0.252-0.826,0.822-0.826h13.603c0.378,0,0.757,0.128,1.013,0.377l2.154,2.214
			c0.312,0.257,0.438,0.568,0.438,1.015V29.49c0,0.438-0.126,0.757-0.438,1.075l-2.031,2.022c-0.379,0.318-0.379,0.761,0,1.078
			l2.031,2.022c0.312,0.25,0.438,0.628,0.438,1.075v16.827c0,0.377-0.126,0.757-0.438,1.014l-2.154,2.154
			c-0.256,0.31-0.635,0.438-1.013,0.438h-13.603c-0.57,0-0.822-0.25-0.822-0.823V9.944z M208.802,29.3
			c0,0.568,0.254,0.819,0.828,0.819h3.796c0.44,0,0.693-0.062,1.008-0.312c0.258-0.317,0.318-0.576,0.318-1.016V16.393
			c0-0.381-0.061-0.698-0.318-0.946c-0.314-0.259-0.567-0.38-1.008-0.38h-3.796c-0.574,0-0.828,0.312-0.828,0.888V29.3z
			 M214.752,37.464c0-0.45-0.061-0.7-0.318-1.02c-0.314-0.246-0.567-0.315-1.008-0.315h-3.796c-0.574,0-0.828,0.256-0.828,0.824
			v13.346c0,0.569,0.254,0.828,0.828,0.828h3.796c0.44,0,0.693-0.068,1.008-0.318c0.258-0.318,0.318-0.569,0.318-1.015V37.464z"/>
		<path d="M237.524,35.88c-0.063,0.377-0.127,0.628-0.127,1.006v19.487c0,0.573-0.25,0.823-0.819,0.823h-4.303
			c-0.568,0-0.824-0.25-0.824-0.823V36.886c0-0.378-0.063-0.629-0.188-1.006l-7.782-25.816c-0.126-0.628,0.062-0.945,0.698-0.945
			h4.938c0.566,0,0.881,0.188,1.005,0.696l3.798,14.551c0.254,0.82,0.756,0.82,1.016,0.062l3.789-14.612
			c0.131-0.508,0.449-0.696,1.016-0.696h4.934c0.633,0,0.828,0.317,0.698,0.945L237.524,35.88z"/>
		<path d="M276.616,9.118c0.382,0,0.766,0.128,1.017,0.377l2.149,2.214c0.314,0.257,0.441,0.568,0.441,1.015v40.867
			c0,0.377-0.127,0.757-0.441,1.014l-2.149,2.154c-0.251,0.31-0.635,0.438-1.017,0.438h-10.816c-0.379,0-0.757-0.128-1.012-0.438
			l-2.148-2.154c-0.317-0.257-0.446-0.637-0.446-1.014V12.724c0-0.446,0.129-0.758,0.446-1.015l2.148-2.214
			c0.255-0.249,0.633-0.377,1.012-0.377H276.616z M274.152,16.452c0-0.379-0.065-0.696-0.317-0.947
			c-0.319-0.249-0.568-0.317-1.016-0.317h-3.286c-0.442,0-0.692,0.068-1.012,0.317c-0.251,0.251-0.318,0.568-0.318,0.947v33.41
			c0,0.437,0.067,0.695,0.318,1.006c0.319,0.259,0.569,0.318,1.012,0.318h3.286c0.447,0,0.696-0.06,1.016-0.318
			c0.252-0.311,0.317-0.569,0.317-1.006V16.452z"/>
		<path d="M318.305,9.118c0.568,0,0.825,0.317,0.761,0.884l-7.34,46.438c-0.06,0.506-0.379,0.756-0.888,0.756h-4.424
			c-0.512,0-0.889-0.25-0.949-0.756l-3.924-25.367c-0.191-0.767-0.887-0.767-1.012,0l-3.924,25.367
			c-0.125,0.506-0.441,0.756-0.946,0.756h-4.427c-0.51,0-0.828-0.25-0.887-0.756l-7.34-46.438c-0.064-0.566,0.187-0.884,0.761-0.884
			h4.297c0.507,0,0.888,0.249,0.952,0.757l3.921,27.458c0.19,0.695,0.887,0.695,1.013,0l3.923-27.458
			c0.128-0.508,0.441-0.757,0.946-0.757h4.434c0.502,0,0.82,0.249,0.884,0.757l3.982,27.458c0.129,0.695,0.827,0.695,1.017,0
			l3.921-27.458c0.064-0.508,0.442-0.757,0.95-0.757H318.305z"/>
		<path d="M338.295,51.187c0.508,0,0.822,0.318,0.822,0.889v4.298c0,0.573-0.314,0.823-0.822,0.823h-15.627
			c-0.569,0-0.82-0.25-0.82-0.823V9.944c0-0.577,0.251-0.826,0.82-0.826h4.429c0.502,0,0.821,0.249,0.821,0.826v40.419
			c0,0.572,0.254,0.823,0.823,0.823H338.295z"/>
		<path d="M359.672,20.311c0,0.576-0.31,0.827-0.884,0.827h-4.364c-0.57,0-0.82-0.251-0.82-0.827v-3.858
			c0-0.379-0.064-0.696-0.381-0.947c-0.253-0.249-0.508-0.317-0.949-0.317h-3.355c-0.378,0-0.692,0.068-0.948,0.317
			c-0.317,0.251-0.376,0.568-0.376,0.947v12.4c0,0.447,0.059,0.697,0.376,1.016c0.256,0.251,0.57,0.317,0.948,0.317h7.085
			c0.45,0,0.762,0.121,1.078,0.439l2.151,2.153c0.248,0.249,0.439,0.63,0.439,1.007v19.806c0,0.377-0.191,0.757-0.439,1.014
			l-2.151,2.154c-0.316,0.31-0.628,0.438-1.078,0.438h-10.755c-0.504,0-0.756-0.128-1.074-0.438l-2.214-2.154
			c-0.249-0.257-0.378-0.637-0.378-1.014v-7.526c0-0.569,0.25-0.827,0.819-0.827h4.367c0.574,0,0.825,0.258,0.825,0.827v3.798
			c0,0.437,0.059,0.695,0.376,1.006c0.256,0.259,0.57,0.318,0.948,0.318h3.355c0.441,0,0.696-0.06,0.949-0.318
			c0.316-0.311,0.381-0.569,0.381-1.006V37.523c0-0.441-0.064-0.697-0.381-1.016c-0.253-0.251-0.508-0.31-0.949-0.31h-7.025
			c-0.504,0-0.756-0.132-1.074-0.45l-2.214-2.15c-0.249-0.249-0.378-0.629-0.378-1.01V12.724c0-0.446,0.129-0.758,0.378-1.015
			l2.214-2.214c0.318-0.249,0.57-0.377,1.074-0.377h10.755c0.45,0,0.762,0.128,1.078,0.377l2.151,2.214
			c0.248,0.257,0.439,0.568,0.439,1.015V20.311z"/>
	</g>
	<g>
		<g>
			<path fill="#FFFFFF" d="M23.477,21.041c-6.146,0-11.13,4.983-11.13,11.13c0,6.147,4.983,11.13,11.13,11.13
				c6.146,0,11.13-4.982,11.13-11.13C34.607,26.024,29.623,21.041,23.477,21.041z M23.478,38.405c-3.442,0-6.232-2.791-6.232-6.234
				c0-3.442,2.79-6.231,6.232-6.231c3.443,0,6.232,2.789,6.232,6.231C29.709,35.614,26.92,38.405,23.478,38.405z"/>
			<path fill="#FFFFFF" d="M50.188,21.041c-6.146,0-11.128,4.983-11.128,11.13c0,6.147,4.982,11.13,11.128,11.13
				c6.148,0,11.13-4.982,11.13-11.13C61.318,26.024,56.337,21.041,50.188,21.041z M50.188,38.405c-3.443,0-6.231-2.791-6.231-6.234
				c0-3.442,2.789-6.231,6.231-6.231c3.444,0,6.234,2.789,6.234,6.231C56.422,35.614,53.632,38.405,50.188,38.405z"/>
			<path fill="#FFFFFF" d="M65.989,0.452c-0.337-0.445-1.087-0.445-1.422,0C57.922,9.285,47.814,14.35,36.833,14.35
				c-10.979,0-21.087-5.064-27.732-13.897c-0.336-0.445-1.085-0.445-1.422,0c-4.81,6.394-7.352,13.972-7.352,21.914
				c0,20.135,16.375,36.516,36.506,36.516c20.129,0,36.505-16.381,36.505-36.516C73.338,14.423,70.797,6.845,65.989,0.452z
				 M40.888,48.009l-3.655,7.358c-0.22,0.439-0.579,0.463-0.797,0.024l-3.655-7.395c-0.22-0.438,0.003-0.879,0.492-0.879h7.124
				C40.885,47.118,41.106,47.571,40.888,48.009z M50.188,47.309c-5.784,0-10.807-3.249-13.355-8.018
				c-2.548,4.769-7.571,8.018-13.355,8.018c-8.358,0-15.137-6.78-15.137-15.138c0-8.356,6.779-15.137,15.137-15.137
				c5.784,0,10.807,3.25,13.355,8.021c2.548-4.771,7.571-8.021,13.355-8.021c8.358,0,15.137,6.78,15.137,15.137
				C65.325,40.528,58.546,47.309,50.188,47.309z"/>
		</g>
		<g>
			<path fill="#FFFFFF" d="M111.836,24.853c0-0.758-0.694-0.879-0.949-0.12l-5.061,13.785c-0.127,0.506-0.377,0.697-0.887,0.697
				h-1.644c-0.506,0-0.758-0.191-1.011-0.697l-4.999-13.785c-0.252-0.759-0.947-0.698-0.947,0.12v27.521
				c0,0.573-0.318,0.823-0.888,0.823h-4.301c-0.571,0-0.822-0.25-0.822-0.823V5.944c0-0.577,0.25-0.826,0.822-0.826h4.49
				c0.443,0,0.76,0.188,0.949,0.696l6.96,18.787c0.253,0.698,0.822,0.698,1.139,0l6.895-18.787c0.189-0.508,0.442-0.696,0.949-0.696
				h4.428c0.569,0,0.885,0.249,0.885,0.826v46.429c0,0.573-0.316,0.823-0.885,0.823h-4.303c-0.567,0-0.822-0.25-0.822-0.823V24.853z
				"/>
			<path fill="#FFFFFF" d="M143.022,52.31c0.062,0.509-0.19,0.887-0.76,0.887h-4.301c-0.508,0-0.822-0.25-0.888-0.756l-1.898-10.506
				c-0.062-0.507-0.441-0.758-0.883-0.758h-5.061c-0.444,0-0.824,0.251-0.888,0.758l-1.708,10.506
				c-0.063,0.506-0.444,0.756-0.95,0.756h-4.302c-0.569,0-0.821-0.378-0.758-0.887l8.033-46.435c0.064-0.508,0.38-0.757,0.887-0.757
				h4.428c0.506,0,0.823,0.249,0.95,0.757L143.022,52.31z M129.61,34.22c-0.063,0.51,0.189,0.888,0.759,0.888h2.783
				c0.569,0,0.823-0.378,0.758-0.888l-1.644-9.807c-0.125-0.826-0.822-0.826-1.013,0L129.61,34.22z"/>
			<path fill="#FFFFFF" d="M145.804,5.944c0-0.577,0.25-0.826,0.822-0.826h13.666c0.378,0,0.757,0.128,1.011,0.377l2.151,2.214
				c0.316,0.257,0.443,0.568,0.443,1.015v40.867c0,0.377-0.126,0.757-0.443,1.014l-2.151,2.154c-0.254,0.31-0.633,0.438-1.011,0.438
				h-13.666c-0.572,0-0.822-0.25-0.822-0.823V5.944z M151.876,46.299c0,0.569,0.252,0.828,0.822,0.828h3.796
				c0.442,0,0.697-0.068,1.013-0.318c0.252-0.318,0.316-0.569,0.316-1.015V12.393c0-0.381-0.063-0.698-0.316-0.946
				c-0.316-0.259-0.571-0.38-1.013-0.38h-3.796c-0.57,0-0.822,0.312-0.822,0.888V46.299z"/>
			<path fill="#FFFFFF" d="M185.339,52.373c0,0.573-0.313,0.823-0.82,0.823H168.89c-0.567,0-0.825-0.25-0.825-0.823V5.944
				c0-0.577,0.258-0.826,0.825-0.826h15.629c0.507,0,0.82,0.249,0.82,0.826v4.295c0,0.57-0.313,0.827-0.82,0.827H174.9
				c-0.566,0-0.825,0.312-0.825,0.888V25.3c0,0.568,0.258,0.819,0.825,0.819h4.367c0.57,0,0.827,0.256,0.827,0.824v4.299
				c0,0.573-0.257,0.887-0.827,0.887H174.9c-0.566,0-0.825,0.256-0.825,0.824v13.346c0,0.569,0.258,0.828,0.825,0.828h9.619
				c0.507,0,0.82,0.311,0.82,0.819V52.373z"/>
			<path fill="#FFFFFF" d="M202.733,5.944c0-0.577,0.252-0.826,0.822-0.826h13.603c0.378,0,0.757,0.128,1.013,0.377l2.154,2.214
				c0.312,0.257,0.438,0.568,0.438,1.015V25.49c0,0.438-0.126,0.757-0.438,1.075l-2.031,2.022c-0.379,0.318-0.379,0.761,0,1.078
				l2.031,2.022c0.312,0.25,0.438,0.628,0.438,1.075v16.827c0,0.377-0.126,0.757-0.438,1.014l-2.154,2.154
				c-0.256,0.31-0.635,0.438-1.013,0.438h-13.603c-0.57,0-0.822-0.25-0.822-0.823V5.944z M208.802,25.3
				c0,0.568,0.254,0.819,0.828,0.819h3.796c0.44,0,0.693-0.062,1.008-0.312c0.258-0.317,0.318-0.576,0.318-1.016V12.393
				c0-0.381-0.061-0.698-0.318-0.946c-0.314-0.259-0.567-0.38-1.008-0.38h-3.796c-0.574,0-0.828,0.312-0.828,0.888V25.3z
				 M214.752,33.464c0-0.45-0.061-0.7-0.318-1.02c-0.314-0.246-0.567-0.315-1.008-0.315h-3.796c-0.574,0-0.828,0.256-0.828,0.824
				v13.346c0,0.569,0.254,0.828,0.828,0.828h3.796c0.44,0,0.693-0.068,1.008-0.318c0.258-0.318,0.318-0.569,0.318-1.015V33.464z"/>
			<path fill="#FFFFFF" d="M237.524,31.88c-0.063,0.377-0.127,0.628-0.127,1.006v19.487c0,0.573-0.25,0.823-0.819,0.823h-4.303
				c-0.568,0-0.824-0.25-0.824-0.823V32.886c0-0.378-0.063-0.629-0.188-1.006L223.48,6.063c-0.126-0.628,0.062-0.945,0.698-0.945
				h4.938c0.566,0,0.881,0.188,1.005,0.696l3.798,14.551c0.254,0.82,0.756,0.82,1.016,0.062l3.789-14.612
				c0.131-0.508,0.449-0.696,1.016-0.696h4.934c0.633,0,0.828,0.317,0.698,0.945L237.524,31.88z"/>
			<path fill="#FFFFFF" d="M276.616,5.118c0.382,0,0.766,0.128,1.017,0.377l2.149,2.214c0.314,0.257,0.441,0.568,0.441,1.015v40.867
				c0,0.377-0.127,0.757-0.441,1.014l-2.149,2.154c-0.251,0.31-0.635,0.438-1.017,0.438h-10.816c-0.379,0-0.757-0.128-1.012-0.438
				l-2.148-2.154c-0.317-0.257-0.446-0.637-0.446-1.014V8.724c0-0.446,0.129-0.758,0.446-1.015l2.148-2.214
				c0.255-0.249,0.633-0.377,1.012-0.377H276.616z M274.152,12.452c0-0.379-0.065-0.696-0.317-0.947
				c-0.319-0.249-0.568-0.317-1.016-0.317h-3.286c-0.442,0-0.692,0.068-1.012,0.317c-0.251,0.251-0.318,0.568-0.318,0.947v33.41
				c0,0.437,0.067,0.695,0.318,1.006c0.319,0.259,0.569,0.318,1.012,0.318h3.286c0.447,0,0.696-0.06,1.016-0.318
				c0.252-0.311,0.317-0.569,0.317-1.006V12.452z"/>
			<path fill="#FFFFFF" d="M318.305,5.118c0.568,0,0.825,0.317,0.761,0.884l-7.34,46.438c-0.06,0.506-0.379,0.756-0.888,0.756
				h-4.424c-0.512,0-0.889-0.25-0.949-0.756l-3.924-25.367c-0.191-0.767-0.887-0.767-1.012,0l-3.924,25.367
				c-0.125,0.506-0.441,0.756-0.946,0.756h-4.427c-0.51,0-0.828-0.25-0.887-0.756l-7.34-46.438
				c-0.064-0.566,0.187-0.884,0.761-0.884h4.297c0.507,0,0.888,0.249,0.952,0.757l3.921,27.458c0.19,0.695,0.887,0.695,1.013,0
				l3.923-27.458c0.128-0.508,0.441-0.757,0.946-0.757h4.434c0.502,0,0.82,0.249,0.884,0.757l3.982,27.458
				c0.129,0.695,0.827,0.695,1.017,0l3.921-27.458c0.064-0.508,0.442-0.757,0.95-0.757H318.305z"/>
			<path fill="#FFFFFF" d="M338.295,47.187c0.508,0,0.822,0.318,0.822,0.889v4.298c0,0.573-0.314,0.823-0.822,0.823h-15.627
				c-0.569,0-0.82-0.25-0.82-0.823V5.944c0-0.577,0.251-0.826,0.82-0.826h4.429c0.502,0,0.821,0.249,0.821,0.826v40.419
				c0,0.572,0.254,0.823,0.823,0.823H338.295z"/>
			<path fill="#FFFFFF" d="M359.672,16.311c0,0.576-0.31,0.827-0.884,0.827h-4.364c-0.57,0-0.82-0.251-0.82-0.827v-3.858
				c0-0.379-0.064-0.696-0.381-0.947c-0.253-0.249-0.508-0.317-0.949-0.317h-3.355c-0.378,0-0.692,0.068-0.948,0.317
				c-0.317,0.251-0.376,0.568-0.376,0.947v12.4c0,0.447,0.059,0.697,0.376,1.016c0.256,0.251,0.57,0.317,0.948,0.317h7.085
				c0.45,0,0.762,0.121,1.078,0.439l2.151,2.153c0.248,0.249,0.439,0.63,0.439,1.007v19.806c0,0.377-0.191,0.757-0.439,1.014
				l-2.151,2.154c-0.316,0.31-0.628,0.438-1.078,0.438h-10.755c-0.504,0-0.756-0.128-1.074-0.438l-2.214-2.154
				c-0.249-0.257-0.378-0.637-0.378-1.014v-7.526c0-0.569,0.25-0.827,0.819-0.827h4.367c0.574,0,0.825,0.258,0.825,0.827v3.798
				c0,0.437,0.059,0.695,0.376,1.006c0.256,0.259,0.57,0.318,0.948,0.318h3.355c0.441,0,0.696-0.06,0.949-0.318
				c0.316-0.311,0.381-0.569,0.381-1.006V33.523c0-0.441-0.064-0.697-0.381-1.016c-0.253-0.251-0.508-0.31-0.949-0.31h-7.025
				c-0.504,0-0.756-0.132-1.074-0.45l-2.214-2.15c-0.249-0.249-0.378-0.629-0.378-1.01V8.724c0-0.446,0.129-0.758,0.378-1.015
				l2.214-2.214c0.318-0.249,0.57-0.377,1.074-0.377h10.755c0.45,0,0.762,0.128,1.078,0.377l2.151,2.214
				c0.248,0.257,0.439,0.568,0.439,1.015V16.311z"/>
		</g>
	</g>
</g>
</svg>
